<svg width="313" height="81" viewBox="0 0 313 81" fill="#263593" xmlns="http://www.w3.org/2000/svg"><path d="M77.0417 55.3015C76.7061 55.3686 76.2362 54.6975 75.7663 53.2881C75.2964 51.9459 74.7594 50.201 74.2223 48.1876C74.0209 47.3823 73.8195 46.5769 73.6182 45.7045C73.4168 44.832 73.2154 43.9596 73.0811 43.0871C72.5441 40.8053 72.0742 38.5906 71.6714 36.5101C71.2686 34.4297 70.933 32.8861 70.7987 31.9465C70.396 29.5305 69.9261 27.6514 69.4562 26.3091C68.9863 25.034 68.5164 24.0273 68.0465 23.4233C67.7108 22.9535 67.308 22.618 66.9724 22.3495C66.6368 22.1482 66.3011 21.8797 66.0326 21.7455C65.8983 21.6784 65.7641 21.6113 65.6298 21.5442C65.4956 21.4771 65.3613 21.4099 65.2942 21.3428C65.4956 21.0744 65.7641 20.8731 66.0997 20.6717C66.4354 20.5375 66.8381 20.4704 67.2409 20.4704C67.5094 20.4704 67.8451 20.4704 68.1136 20.5375C68.4492 20.6046 68.7178 20.6717 68.9863 20.7388C69.4562 20.8731 69.9261 21.0073 70.3288 21.1415C70.7316 21.2757 71.1344 21.4771 71.5372 21.6784C71.9399 21.8797 72.2756 22.014 72.477 22.2153C72.6784 22.3495 72.8797 22.4837 72.9469 22.618C73.2825 23.4233 73.6853 24.7655 74.0881 26.5105C74.4908 28.2554 74.8936 30.2016 75.2964 32.4163C75.3635 33.0203 75.4306 33.5572 75.5649 34.0941C75.6992 34.631 75.7663 35.235 75.9005 35.7719C76.5047 39.3288 77.1089 42.5502 77.713 45.5031C78.3172 48.4561 78.8542 49.8654 79.3241 49.7312C79.7269 49.597 80.4653 48.389 81.5394 45.9729C82.6134 43.5569 83.8889 40.9395 85.2315 38.1208C85.4329 37.651 85.7014 37.1142 85.9028 36.6444C86.1041 36.1075 86.3727 35.6377 86.6412 35.1679C87.7824 32.819 88.9236 30.8056 89.9976 29.0607C91.0717 27.3158 91.9444 26.4433 92.6828 26.4433H92.817H92.8842C92.9513 26.4433 92.9513 26.4433 92.9513 26.4433H93.0184H93.1527C93.8911 26.3762 94.6295 27.6514 95.5022 30.2016C96.3749 32.7519 97.2475 35.5706 98.1874 38.5906C98.3216 39.1946 98.523 39.7315 98.6573 40.2684C98.8586 40.8053 98.9929 41.3422 99.1272 41.8791C99.8656 44.228 100.604 46.3085 101.342 48.0534C102.081 49.7983 102.752 50.6708 103.423 50.7379H103.558H103.692C103.759 50.6708 103.826 50.6708 103.826 50.6037C106.109 48.6574 107.921 46.3085 109.196 43.6911C110.472 41.0738 111.412 38.3893 112.016 35.6377C112.352 34.0941 112.553 32.5505 112.687 31.0741C112.821 29.5305 112.889 28.1211 112.889 26.7118C112.889 25.3024 112.821 23.8931 112.754 22.618C112.62 21.3428 112.486 20.2019 112.352 19.1953C114.097 19.3966 115.305 20.1348 116.044 21.2757C116.782 22.4166 117.118 23.8931 117.118 25.7051C117.118 27.3829 116.849 29.1949 116.312 31.2083C115.775 33.2217 115.104 35.235 114.231 37.3155C113.358 39.3288 112.419 41.3422 111.277 43.2885C110.203 45.2347 109.062 47.0467 107.988 48.6574C106.78 50.4694 105.572 51.9459 104.363 53.0868C103.155 54.2277 102.148 54.9659 101.275 55.3015C99.9998 54.9659 98.9258 53.5566 97.986 51.0734C97.0462 48.5903 96.1735 45.9058 95.3008 43.02C95.1665 42.6844 95.0994 42.3489 95.0323 42.0804C94.9652 41.7449 94.8309 41.4093 94.7638 41.1409C94.0925 38.9933 93.4883 36.9799 92.817 35.1679C92.1458 33.3559 91.4745 32.0136 90.6689 31.2754C86.9768 38.1879 84.3588 43.2885 82.882 46.5769C81.4051 49.9325 80.1968 52.2144 79.1899 53.6237C78.8542 54.0264 78.5186 54.3619 78.1829 54.6304C77.8473 54.8317 77.4445 55.1002 77.0417 55.3015Z" fill="#263593" data-darkreader-inline-fill="" style="--darkreader-inline-fill: var(--darkreader-background-ffffff, #181a1b);"></path><path d="M123.495 25.0671C123.562 25.0671 123.562 25.0671 123.629 25.0671H123.763H123.898H124.032C124.435 25.0671 124.838 25.1342 125.173 25.2684C125.509 25.4027 125.844 25.5369 126.113 25.6711C126.382 25.8053 126.583 25.9396 126.717 26.0738C126.851 26.208 126.851 26.2751 126.784 26.2751V31.3085C126.717 31.3756 126.65 31.4428 126.583 31.4428C126.449 31.5099 126.314 31.5099 126.18 31.5099C126.046 31.5099 125.912 31.5099 125.777 31.5099C125.643 31.5099 125.442 31.4428 125.307 31.4428C124.972 31.3085 124.636 31.1743 124.301 30.9059C123.965 30.7045 123.831 30.369 123.831 30.1005L123.428 25C123.428 25.1342 123.428 25.1342 123.495 25.0671ZM122.488 36.9459V36.8117C122.421 36.7446 122.421 36.7446 122.421 36.7446V36.6775C122.488 36.4761 122.488 36.3419 122.622 36.2077C122.689 36.1406 122.824 36.0735 123.025 36.0735C123.226 36.0735 123.495 36.1406 123.831 36.2077C124.166 36.3419 124.502 36.4761 124.77 36.6104C124.905 36.6775 125.039 36.7446 125.173 36.8117C125.307 36.8788 125.442 36.9459 125.576 37.0802C125.777 37.2144 125.979 37.2815 126.18 37.4157C126.382 37.5499 126.516 37.6842 126.717 37.7513C126.851 37.8855 126.919 38.0868 126.919 38.5566C126.986 38.9593 126.986 39.4962 126.986 40.1002C126.986 40.8384 126.986 41.6438 126.919 42.5833C126.851 43.5229 126.851 44.4625 126.784 45.402C126.717 45.4692 126.717 45.5363 126.717 45.6705V45.9389C126.65 46.8114 126.65 47.6838 126.583 48.5563C126.516 49.4288 126.516 50.2341 126.516 50.9052C126.516 51.3079 126.516 51.7106 126.516 52.1132C126.516 52.4488 126.583 52.7844 126.583 53.0528C126.583 53.1199 126.583 53.1199 126.583 53.187C126.583 53.2541 126.583 53.3213 126.583 53.3884C126.583 53.4555 126.583 53.5226 126.583 53.5897C126.583 53.6568 126.583 53.7239 126.583 53.791V53.9924C126.516 54.1266 126.516 54.1937 126.449 54.3279C126.382 54.4622 126.247 54.5293 126.046 54.5964C125.979 54.6635 125.979 54.6635 125.912 54.6635C125.844 54.6635 125.844 54.6635 125.777 54.6635H125.643H125.509H125.307C125.24 54.6635 125.173 54.6635 125.106 54.5964C124.838 54.5293 124.569 54.4622 124.301 54.395C124.032 54.2608 123.831 54.1266 123.696 53.9924C123.629 53.9253 123.562 53.9253 123.562 53.8582C123.495 53.791 123.495 53.7239 123.495 53.7239C123.428 53.4555 123.428 53.0528 123.428 52.4488C123.428 51.8448 123.428 51.1066 123.428 50.3012V49.7643V49.1603V47.3483V45.402C123.361 43.3216 123.294 41.4424 123.159 39.7646C123.226 38.1539 122.958 37.2144 122.488 36.9459Z" fill="#263593" data-darkreader-inline-fill="" style="--darkreader-inline-fill: var(--darkreader-text-ffffff, #e8e6e3);"></path><path d="M135.243 43.8254V31.9466C135.243 29.5976 135.175 27.7185 135.108 26.242C135.041 24.7656 134.974 23.6247 134.907 22.8193C134.773 21.9469 134.706 21.3429 134.638 20.9402C134.571 20.5375 134.504 20.202 134.504 20.0006C134.437 19.7993 134.504 19.6651 134.504 19.4637C134.571 19.2624 134.638 19.0611 134.773 18.7926C134.84 18.7255 134.974 18.6584 135.108 18.5913C135.243 18.5242 135.444 18.5242 135.578 18.5242C135.78 18.5242 135.981 18.5242 136.182 18.5913C136.384 18.6584 136.585 18.7255 136.854 18.7926C137.391 18.994 137.793 19.1953 138.196 19.5308C138.599 19.8664 138.867 20.202 139.002 20.5375C139.069 20.6046 139.069 20.7389 139.069 20.9402V21.6784C139.069 22.6851 139.002 24.1616 138.935 26.1749C138.867 28.1883 138.733 30.403 138.666 32.8861C138.599 33.6915 138.599 34.4968 138.532 35.3022C138.465 36.1075 138.465 36.98 138.398 37.7853C138.33 39.5302 138.263 41.208 138.263 42.8858C138.196 44.5636 138.196 46.1072 138.196 47.5165C138.196 49.1272 138.263 50.5366 138.33 51.7446C138.398 52.9526 138.532 53.8251 138.666 54.362C138.666 54.5633 138.599 54.6975 138.398 54.7646C138.263 54.8318 137.995 54.8989 137.793 54.8989C137.659 54.8989 137.525 54.8989 137.391 54.8989C137.256 54.8989 137.122 54.8317 136.988 54.8317C136.719 54.7646 136.451 54.7646 136.182 54.6304C135.914 54.5633 135.712 54.4291 135.511 54.362C135.377 54.2949 135.31 54.2277 135.243 54.1606C135.175 54.0935 135.175 54.0264 135.243 53.9593C135.175 53.4895 135.108 53.0197 135.108 52.4828C135.041 51.9459 135.041 51.409 135.041 50.8721C135.041 50.4024 135.041 49.8655 135.041 49.3957C135.041 48.8588 135.108 48.389 135.108 47.9192V47.6508V47.3823C135.175 46.7783 135.175 46.2414 135.175 45.6374C135.243 45.0334 135.243 44.4294 135.243 43.8254Z" fill="#263593" data-darkreader-inline-fill="" style="--darkreader-inline-fill: var(--darkreader-background-ffffff, #181a1b);"></path><path d="M147.057 43.8254V31.9466C147.057 29.5976 146.99 27.7185 146.923 26.242C146.856 24.7656 146.789 23.6247 146.722 22.8193C146.587 21.9469 146.52 21.3429 146.453 20.9402C146.386 20.5375 146.319 20.202 146.319 20.0006C146.252 19.7993 146.319 19.6651 146.319 19.4637C146.386 19.2624 146.453 19.0611 146.587 18.7926C146.654 18.7255 146.789 18.6584 146.923 18.5913C147.057 18.5242 147.259 18.5242 147.393 18.5242C147.594 18.5242 147.796 18.5242 147.997 18.5913C148.198 18.6584 148.4 18.7255 148.668 18.7926C149.205 18.994 149.608 19.1953 150.011 19.5308C150.414 19.8664 150.682 20.202 150.816 20.5375C150.884 20.6046 150.884 20.7389 150.884 20.9402V21.6784C150.884 22.6851 150.816 24.1616 150.749 26.1749C150.682 28.1883 150.548 30.403 150.481 32.8861C150.414 33.6915 150.414 34.4968 150.347 35.3022C150.279 36.1075 150.279 36.98 150.212 37.7853C150.145 39.5302 150.078 41.208 150.078 42.8858C150.011 44.5636 150.011 46.1072 150.011 47.5165C150.011 49.1272 150.078 50.5366 150.145 51.7446C150.212 52.9526 150.347 53.8251 150.481 54.362C150.481 54.5633 150.414 54.6975 150.212 54.7646C150.078 54.8318 149.877 54.8989 149.608 54.8989C149.474 54.8989 149.34 54.8989 149.205 54.8989C149.071 54.8989 148.937 54.8317 148.803 54.8317C148.534 54.7646 148.266 54.7646 147.997 54.6304C147.729 54.5633 147.527 54.4291 147.326 54.362C147.191 54.2949 147.124 54.2277 147.057 54.1606C146.99 54.0935 146.99 54.0264 147.057 53.9593C146.99 53.4895 146.923 53.0197 146.923 52.4828C146.856 51.9459 146.856 51.409 146.856 50.8721C146.856 50.4024 146.856 49.8655 146.856 49.3957C146.856 48.8588 146.923 48.389 146.923 47.9192V47.6508V47.3823C146.99 46.7783 146.99 46.2414 146.99 45.6374C147.057 45.0334 147.057 44.4294 147.057 43.8254Z" fill="#263593" data-darkreader-inline-fill="" style="--darkreader-inline-fill: var(--darkreader-background-ffffff, #181a1b);"></path><path d="M175.52 44.2281C174.849 42.4831 173.842 41.3422 172.633 40.6711C171.358 40 170.082 39.7315 168.673 39.7315C167.532 39.7315 166.39 39.8658 165.316 40.2013C164.242 40.5369 163.37 40.8725 162.698 41.2751C162.43 41.4765 162.161 41.6107 161.96 41.7449C161.758 41.8791 161.624 42.0134 161.49 42.1476C161.289 42.416 161.087 42.7516 160.953 43.02C160.819 43.3556 160.684 43.624 160.55 43.8925C160.483 44.2281 160.416 44.5636 160.349 44.8321C160.282 45.1676 160.282 45.4361 160.282 45.7045C160.282 47.5165 161.02 49.1272 162.564 50.4695C164.108 51.8117 165.92 52.5499 168.136 52.5499C168.471 52.5499 168.874 52.5499 169.21 52.4828C169.613 52.4157 169.948 52.3486 170.284 52.2815C171.895 51.9459 173.17 51.2077 174.177 50.0668C175.184 48.9259 175.721 47.6508 175.721 46.1072C175.721 45.9058 175.721 45.7045 175.721 45.4361C175.721 45.2347 175.654 45.0334 175.587 44.7649C175.587 44.6307 175.587 44.5636 175.52 44.4294C175.587 44.4965 175.52 44.4294 175.52 44.2281ZM169.478 37.4497C170.015 37.5168 170.687 37.5169 171.492 37.6511C172.298 37.7182 173.103 37.9195 173.976 38.188C175.386 38.5906 176.661 39.1947 177.802 40.0671C178.943 40.9396 179.548 42.1476 179.548 43.7583C179.548 44.4294 179.413 45.1676 179.212 45.973C179.011 46.7783 178.541 47.6508 178.004 48.5903C177.332 49.7312 176.393 50.7379 175.184 51.6104C173.976 52.5499 172.768 53.2211 171.492 53.6908C170.888 53.8922 170.284 54.0935 169.613 54.2277C169.008 54.362 168.404 54.4291 167.8 54.4291C167.397 54.4962 166.995 54.4962 166.592 54.4962C166.189 54.4962 165.786 54.4962 165.316 54.4962H164.981H164.645C162.631 54.4291 160.752 54.0264 159.073 53.2211C157.395 52.4157 156.455 50.8721 156.254 48.5232C156.254 47.9863 156.388 47.2481 156.59 46.3085C156.791 45.369 157.194 44.4294 157.798 43.4227C158.603 42.0805 159.946 40.8053 161.758 39.5973C163.705 38.4564 166.256 37.7853 169.478 37.4497Z" fill="#263593" data-darkreader-inline-fill="" style="--darkreader-inline-fill: var(--darkreader-text-ffffff, #e8e6e3);"></path><path d="M188.677 50.201C187.066 44.8321 185.656 41.4765 184.448 40.1342C183.24 38.792 182.568 37.9195 182.501 37.3826C182.434 37.2484 182.501 37.1813 182.501 37.0471C182.568 36.9129 182.636 36.8458 182.77 36.6444H183.105C183.24 36.6444 183.307 36.6444 183.441 36.5773H183.71H183.978C185.589 36.5773 186.663 36.8458 187.267 37.3155C187.872 37.8524 188.409 38.7249 188.879 39.9329C189.281 41.0738 189.751 42.4832 190.221 44.2952C190.758 46.1072 191.631 48.3219 192.906 51.0064C193.175 50.8722 193.443 50.6708 193.712 50.4695C193.98 50.2682 194.249 49.9326 194.517 49.597C195.054 48.993 195.524 48.2548 196.061 47.3152C196.598 46.4428 197.068 45.5032 197.605 44.5636C198.478 42.8858 199.284 41.4094 200.022 40C200.76 38.5907 201.365 37.9195 201.834 37.9195C202.036 37.7853 202.506 38.4564 203.177 39.9329C203.848 41.3423 204.654 42.9529 205.392 44.6979C205.392 44.765 205.392 44.765 205.392 44.8321C205.392 44.8992 205.459 44.8992 205.459 44.9663C206.198 46.577 206.869 48.0535 207.54 49.3957C208.212 50.7379 208.682 51.4762 209.017 51.5433C209.219 51.6104 209.42 51.6104 209.689 51.6104C209.89 51.5433 210.158 51.4762 210.36 51.3419C210.964 51.0064 211.501 50.3353 212.105 49.3286C212.709 48.389 213.179 47.3823 213.582 46.3085C213.783 45.8388 213.918 45.3019 214.119 44.8321C214.253 44.3623 214.388 43.8925 214.522 43.4898C214.656 43.0201 214.79 42.5503 214.79 42.1476C214.857 41.7449 214.857 41.3423 214.857 40.9396C214.857 40.4027 214.79 39.8658 214.723 39.396C214.656 38.9262 214.589 38.4564 214.455 38.0538C214.388 37.7182 214.32 37.3826 214.186 37.0471C214.119 36.7115 214.052 36.4431 214.052 36.2417C214.052 36.0404 214.052 35.9062 214.119 35.772C214.186 35.6377 214.253 35.5035 214.388 35.4364C215.73 35.7048 216.737 36.2417 217.274 37.0471C217.811 37.8524 218.08 38.792 218.08 39.7987C218.08 40.0671 218.08 40.3356 218.013 40.604C217.945 40.8725 217.945 41.1409 217.878 41.4094C217.677 42.2147 217.408 43.0201 217.073 43.8254C216.737 44.6307 216.401 45.3019 215.999 45.9059C215.864 46.1072 215.73 46.2414 215.596 46.4428C215.462 46.6441 215.327 46.7783 215.193 46.8454C214.925 47.2481 214.656 47.785 214.253 48.3219C213.851 48.8588 213.448 49.3957 212.978 49.9326C212.642 50.4024 212.239 50.8722 211.904 51.2748C211.501 51.6775 211.165 52.1473 210.763 52.4828C210.024 53.154 209.353 53.6909 208.682 54.1606C208.01 54.5633 207.473 54.8318 206.936 54.8318H206.802H206.735H206.668C206.332 54.6975 205.862 54.0935 205.325 52.8855C204.721 51.6775 204.117 50.3353 203.446 48.9259C203.378 48.7917 203.311 48.6575 203.244 48.5232C203.177 48.389 203.11 48.2548 203.043 48.1206C202.439 46.8454 201.834 45.7045 201.297 44.6979C200.76 43.6912 200.29 43.1543 199.888 43.0201C199.552 43.4227 199.015 44.2281 198.344 45.369C197.672 46.5099 196.934 47.785 196.129 49.0601C195.994 49.3286 195.86 49.5299 195.726 49.7984C195.591 50.0668 195.457 50.3353 195.323 50.5366C194.517 51.8788 193.712 53.0197 192.973 53.9593C192.235 54.8989 191.564 55.3687 191.094 55.3016C190.892 55.1002 190.691 54.7647 190.423 54.4291C190.221 54.0264 190.02 53.6238 189.818 53.0869C189.684 52.9526 189.617 52.7513 189.55 52.6171C189.483 52.4157 189.416 52.2815 189.348 52.0802C189.214 51.7446 189.08 51.4091 188.946 51.1406C188.946 50.805 188.811 50.5366 188.677 50.201Z" fill="#263593" data-darkreader-inline-fill="" style="--darkreader-inline-fill: var(--darkreader-background-ffffff, #181a1b);"></path><path d="M225.934 33.7586C225.799 32.8861 225.732 32.0808 225.665 31.2755C225.598 30.4701 225.598 29.7319 225.598 28.9937C225.598 24.9669 226.202 21.8127 227.545 19.6651C228.82 17.5175 230.23 15.9068 231.774 15.0344C232.58 14.5646 233.318 14.229 234.123 13.9606C234.929 13.7592 235.6 13.5579 236.137 13.4908H236.406H236.607C237.279 13.4908 237.816 13.6921 238.084 14.0277C238.42 14.3632 238.554 14.7659 238.621 15.1015V15.3028V15.5041C238.621 15.9068 238.554 16.3095 238.353 16.5779C238.218 16.9135 238.017 16.9806 237.816 16.8464C237.614 16.7793 237.48 16.7122 237.279 16.645C237.077 16.5779 236.943 16.5108 236.742 16.4437C236.204 16.2424 235.735 16.041 235.198 15.8397C234.661 15.6384 234.191 15.5713 233.654 15.5713C232.445 15.5041 231.371 16.5108 230.566 18.4571C229.693 20.4033 229.29 24.5643 229.223 30.8728V31.611C229.223 31.8124 229.223 32.0808 229.29 32.3492V32.9533V33.7586H230.297H231.371C232.177 33.6915 232.915 33.6915 233.721 33.6244C234.459 33.5573 235.13 33.4902 235.735 33.3559C236.406 33.3559 236.742 33.423 236.809 33.6244C236.876 33.8257 236.809 34.0271 236.607 34.2284C236.473 34.3626 236.272 34.4968 236.07 34.6311C235.869 34.7653 235.6 34.8995 235.399 34.9666H235.332C234.996 35.1008 234.459 35.168 233.855 35.3022C233.251 35.4364 232.58 35.5035 231.908 35.5706C231.304 35.6377 230.767 35.7048 230.297 35.7048C229.76 35.772 229.357 35.772 228.955 35.772C228.887 35.9062 228.887 36.376 228.82 37.2484C228.753 38.0538 228.753 39.1276 228.686 40.4027C228.619 41.0067 228.619 41.6778 228.619 42.3489C228.619 43.0201 228.619 43.7583 228.552 44.5636V44.6307C228.552 45.369 228.552 46.1072 228.552 46.8454C228.552 47.5837 228.552 48.389 228.552 49.1272C228.485 52.2144 228.485 49.7984 228.418 52.4828C228.35 55.1673 228.283 56.6438 228.149 56.9122C228.015 57.3149 227.813 57.5834 227.612 57.7847C227.411 57.986 227.209 58.0531 226.941 58.0531C226.806 58.0531 226.672 58.0531 226.471 57.986C226.337 57.9189 226.135 57.8518 225.934 57.7847C225.799 57.7176 225.732 57.3149 225.732 56.5767C225.665 55.8384 225.665 54.7646 225.665 53.5566C225.665 52.2815 225.665 50.8722 225.732 49.3286C225.732 47.7179 225.799 51.3419 225.867 49.7313V48.993C225.867 48.7246 225.867 48.4561 225.934 48.2548C226.001 46.3757 226.001 44.5636 226.068 42.8187C226.135 41.1409 226.135 39.7316 226.135 38.5907C226.135 37.9867 226.135 37.5169 226.135 37.1142C226.135 36.7115 226.068 36.5102 226.068 36.4431C225.665 36.4431 225.195 36.4431 224.591 36.376C223.987 36.3089 223.383 36.2417 222.712 35.9733C222.376 35.8391 222.107 35.7049 221.906 35.5706C221.705 35.4364 221.57 35.3022 221.369 35.1008C221.168 34.8995 221.1 34.6982 221.1 34.4297V34.2955C221.1 34.2284 221.1 34.2284 221.168 34.1613C221.168 34.0271 221.235 33.9599 221.302 33.8257C221.369 33.6915 221.436 33.6244 221.503 33.4902C221.57 33.423 221.705 33.3559 221.839 33.3559C221.973 33.3559 222.242 33.3559 222.443 33.3559C222.644 33.3559 222.913 33.3559 223.114 33.3559C223.383 33.3559 223.584 33.423 223.853 33.423C224.323 33.4902 224.793 33.4902 225.195 33.6244C225.464 33.5573 225.732 33.6915 225.934 33.7586Z" fill="#263593" data-darkreader-inline-fill="" style="--darkreader-inline-fill: var(--darkreader-background-ffffff, #181a1b);"></path><path d="M240.165 25.1682C240.232 25.1682 240.232 25.1682 240.299 25.1682H240.434H240.568H240.702C241.105 25.1682 241.441 25.2354 241.843 25.3696C242.179 25.5038 242.515 25.638 242.783 25.7723C243.052 25.9065 243.253 26.0407 243.387 26.1749C243.522 26.3092 243.522 26.3763 243.454 26.3763V31.4097C243.387 31.4768 243.32 31.5439 243.253 31.5439C243.119 31.611 242.984 31.611 242.85 31.611C242.716 31.611 242.582 31.611 242.447 31.611C242.313 31.611 242.112 31.5439 241.978 31.5439C241.642 31.4097 241.306 31.2754 240.971 31.007C240.635 30.8057 240.501 30.4701 240.501 30.2016L240.098 25.1011C240.031 25.2354 240.098 25.2354 240.165 25.1682ZM239.158 37.0471V36.9128C239.091 36.8457 239.091 36.8457 239.091 36.8457V36.7786C239.158 36.5773 239.158 36.4431 239.292 36.3088C239.36 36.2417 239.494 36.1746 239.695 36.1746C239.897 36.1746 240.165 36.2417 240.501 36.3088C240.836 36.4431 241.172 36.5773 241.441 36.7115C241.575 36.7786 241.709 36.8457 241.843 36.9128C241.978 36.98 242.112 37.0471 242.246 37.1813C242.447 37.3155 242.649 37.3826 242.85 37.5169C243.052 37.6511 243.186 37.7853 243.387 37.8524C243.522 37.9866 243.589 38.188 243.589 38.6578C243.656 39.0604 243.656 39.5973 243.656 40.2013C243.656 40.9396 243.656 41.7449 243.589 42.6845C243.522 43.624 243.522 44.5636 243.454 45.5032C243.387 45.5703 243.387 45.6374 243.387 45.7716V46.0401C243.32 46.9125 243.32 47.785 243.253 48.6574C243.186 49.5299 243.186 50.3352 243.186 51.0064C243.186 51.409 243.186 51.8117 243.186 52.2144C243.186 52.5499 243.253 52.8855 243.253 53.1539C243.253 53.2211 243.253 53.2211 243.253 53.2882C243.253 53.3553 243.253 53.4224 243.253 53.4895C243.253 53.5566 243.253 53.6237 243.253 53.6908C243.253 53.7579 243.253 53.8251 243.253 53.8922V54.0935C243.186 54.2277 243.186 54.2948 243.119 54.4291C243.052 54.5633 242.917 54.6304 242.716 54.6975C242.649 54.7646 242.649 54.7646 242.582 54.7646C242.515 54.7646 242.515 54.7646 242.447 54.7646H242.313H242.179H241.978C241.91 54.7646 241.843 54.7646 241.776 54.6975C241.508 54.6304 241.239 54.5633 240.971 54.4962C240.702 54.362 240.501 54.2277 240.366 54.0935C240.299 54.0264 240.232 54.0264 240.232 53.9593C240.165 53.8922 240.165 53.8251 240.165 53.8251C240.098 53.5566 240.098 53.1539 240.098 52.5499C240.098 51.9459 240.098 51.2077 240.098 50.4023V49.8655V49.2614V47.4494V45.5032C240.031 43.4227 239.964 41.5436 239.829 39.8658C239.897 38.2551 239.561 37.3155 239.158 37.0471Z" fill="#263593" data-darkreader-inline-fill="" style="--darkreader-inline-fill: var(--darkreader-text-ffffff, #e8e6e3);"></path><path d="M253.121 45.9059C255.605 45.5703 257.686 45.3018 259.297 45.1005C260.908 44.8992 262.251 44.6978 263.19 44.5636C264.399 44.3623 265.204 44.0938 265.674 43.8925C266.077 43.624 266.278 43.2214 266.278 42.6174C266.345 42.4831 266.345 42.3489 266.345 42.2147C266.345 42.0805 266.345 41.9462 266.345 41.8791C266.345 41.0067 266.01 40.2684 265.271 39.7315C264.6 39.1275 263.459 38.8591 261.982 38.8591C261.646 38.8591 260.975 38.9933 260.102 39.1947C259.23 39.396 258.223 39.8658 257.216 40.5369C256.41 41.1409 255.672 41.812 254.866 42.6845C254.195 43.5569 253.591 44.6307 253.121 45.9059ZM251.443 44.2281C252.718 42.3489 253.927 41.0067 255.001 40.2684C256.142 39.4631 256.947 38.9933 257.35 38.792C257.484 38.7249 257.619 38.6578 257.887 38.5235C258.089 38.3893 258.424 38.3222 258.76 38.2551C259.364 38.0537 260.102 37.8524 260.975 37.7182C261.848 37.584 262.788 37.4497 263.727 37.4497H264.063H264.399C265.741 37.4497 266.882 37.6511 267.956 38.1209C268.963 38.5235 269.568 39.3289 269.635 40.5369C269.635 41.1409 269.702 41.6778 269.769 42.0805C269.836 42.4831 269.97 42.8187 270.105 43.0871C270.239 43.3556 270.306 43.624 270.373 43.7583C270.44 43.8925 270.507 44.0938 270.507 44.2281C270.507 44.2952 270.44 44.3623 270.373 44.4965C270.306 44.6307 270.172 44.6978 269.97 44.8321C269.433 44.9663 268.359 45.1676 266.681 45.4361C265.07 45.7045 263.325 46.0401 261.445 46.3756C259.632 46.6441 257.887 46.9796 256.276 47.2481C254.665 47.5165 253.524 47.7179 252.987 47.8521C253.389 49.7312 254.329 51.1406 255.605 52.2144C256.947 53.2211 258.827 53.758 261.244 53.758C262.452 53.758 263.727 53.6237 265.204 53.3553C266.614 53.0868 268.225 52.6842 269.97 52.1473C270.776 51.9459 271.447 51.8117 271.984 51.7446C272.521 51.6775 272.924 51.6104 273.193 51.6104C273.595 51.6104 273.864 51.6775 273.931 51.7446C273.998 51.8788 273.998 51.9459 273.864 52.1473C273.797 52.2144 273.73 52.2815 273.662 52.4157C273.528 52.4828 273.461 52.5499 273.327 52.617C272.051 53.0868 270.709 53.4895 269.299 53.8922C267.889 54.2948 266.413 54.5633 264.936 54.8317C263.862 55.0331 262.788 55.1673 261.713 55.2344C260.639 55.3686 259.565 55.3686 258.558 55.3686C255.94 55.3686 253.792 54.966 251.98 54.2277C250.234 53.4224 249.295 52.0802 249.227 50.1339C249.227 49.3957 249.362 48.5232 249.697 47.5837C250.234 46.4427 250.771 45.4361 251.443 44.2281Z" fill="#263593" data-darkreader-inline-fill="" style="--darkreader-inline-fill: var(--darkreader-text-ffffff, #e8e6e3);"></path><path d="M279.033 43.8254V31.9466C279.033 29.5976 278.966 27.7185 278.898 26.242C278.831 24.7656 278.764 23.6247 278.697 22.8193C278.563 21.9469 278.496 21.3429 278.429 20.9402C278.361 20.5375 278.294 20.202 278.294 20.0006C278.227 19.7993 278.294 19.6651 278.294 19.4637C278.361 19.2624 278.429 19.0611 278.563 18.7926C278.63 18.7255 278.764 18.6584 278.898 18.5913C279.033 18.5242 279.234 18.5242 279.368 18.5242C279.57 18.5242 279.771 18.5242 279.973 18.5913C280.174 18.6584 280.375 18.7255 280.644 18.7926C281.181 18.994 281.584 19.1953 282.054 19.5308C282.456 19.8664 282.725 20.202 282.859 20.5375C282.926 20.6046 282.926 20.7389 282.926 20.9402V21.6784C282.926 22.6851 282.859 24.1616 282.792 26.1749C282.725 28.1883 282.591 30.403 282.523 32.8861C282.456 33.6915 282.456 34.4968 282.389 35.3022C282.322 36.1075 282.322 36.98 282.255 37.7853C282.188 39.5302 282.121 41.208 282.121 42.8858C282.121 44.5636 282.054 46.1072 282.054 47.5165C282.054 49.1272 282.121 50.5366 282.188 51.7446C282.255 52.9526 282.389 53.8251 282.523 54.362C282.523 54.5633 282.456 54.6975 282.255 54.7646C282.121 54.8318 281.852 54.8989 281.651 54.8989C281.517 54.8989 281.382 54.8989 281.248 54.8989C281.114 54.8989 280.979 54.8317 280.845 54.8317C280.577 54.7646 280.308 54.7646 280.04 54.6304C279.771 54.5633 279.57 54.4291 279.368 54.362C279.234 54.2949 279.167 54.2277 279.1 54.1606C279.033 54.0935 279.033 54.0264 279.1 53.9593C279.033 53.4895 278.966 53.0197 278.966 52.4828C278.898 51.9459 278.898 51.409 278.898 50.8721C278.898 50.4024 278.898 49.8655 278.898 49.3957C278.898 48.8588 278.966 48.389 278.966 47.9192V47.6508V47.3823C279.033 46.7783 279.033 46.2414 279.033 45.6374C279.033 45.0334 279.033 44.4294 279.033 43.8254Z" fill="#263593" data-darkreader-inline-fill="" style="--darkreader-inline-fill: var(--darkreader-background-ffffff, #181a1b);"></path><path d="M305.884 39.6644C304.542 39.1275 303.132 38.8591 301.655 38.8591H301.521H301.32C299.373 38.8591 297.493 39.4631 295.815 40.6711C294.137 41.8791 292.996 44.0938 292.526 47.3152C292.459 47.4494 292.459 47.5836 292.459 47.7179V48.0534C292.459 49.7312 292.996 50.8721 294.137 51.5432C295.278 52.2144 296.621 52.5499 298.165 52.5499C298.836 52.5499 299.507 52.4828 300.178 52.4157C300.85 52.3486 301.588 52.2144 302.259 52.013C303.468 51.7446 304.676 51.3419 305.884 50.805C307.093 50.2681 308.1 49.6641 309.039 48.993V41.2751C308.301 40.7382 307.227 40.1342 305.884 39.6644ZM309.576 40.4027C309.576 37.7182 309.576 35.3021 309.509 33.1546C309.442 30.9399 309.375 29.0607 309.308 27.3829C309.241 25.7051 309.174 24.2958 309.107 23.0878C309.039 21.9469 309.039 21.0073 309.039 20.2691C309.039 19.9335 309.039 19.5979 309.039 19.3966C309.039 19.1953 309.107 18.9939 309.107 18.8597C309.174 18.8597 309.174 18.8597 309.241 18.8597C309.308 18.8597 309.308 18.8597 309.375 18.8597H309.509C309.711 18.8597 309.845 18.8597 310.046 18.9268C310.248 18.9939 310.449 18.9939 310.65 19.061C310.852 19.1282 310.986 19.1953 311.188 19.2624C311.389 19.3295 311.523 19.3966 311.657 19.4637C311.993 19.6651 312.396 19.8664 312.866 20.1348C312.933 20.4033 313 20.6717 313 21.0744C313 21.4771 313 21.8797 313 22.4166C313 23.7589 312.933 25.5038 312.799 27.6514C312.664 29.799 312.463 32.0808 312.329 34.5639C312.262 35.839 312.194 37.1142 312.127 38.3893C312.06 39.7315 311.993 41.0067 311.926 42.2818C311.859 43.4898 311.792 44.6978 311.792 45.9058C311.725 47.1139 311.725 48.2548 311.725 49.4628C311.725 50.7379 311.725 52.013 311.792 53.1539C311.859 54.3619 311.926 55.5028 312.06 56.5766C311.389 56.5095 310.919 56.4424 310.583 56.3753C310.248 56.3082 309.979 56.174 309.711 56.0397C309.442 55.9055 309.241 55.6371 309.174 55.3686C309.107 55.0331 309.039 54.6975 309.039 54.3619C308.972 54.0264 308.972 53.7579 308.972 53.4224C308.972 53.0868 308.972 52.8184 308.972 52.5499C308.972 52.2815 309.039 52.013 309.039 51.7446C309.039 51.4761 309.107 51.2748 309.107 51.0063C309.107 50.805 309.107 50.5366 309.107 50.3352C308.167 51.0735 306.757 51.8117 305.012 52.5499C303.266 53.2882 301.454 53.8251 299.574 54.1606C298.769 54.3619 297.896 54.4962 297.09 54.5633C296.285 54.6304 295.479 54.6975 294.741 54.6975C293.398 54.6975 292.257 54.4962 291.25 54.1606C290.243 53.8251 289.572 53.221 289.169 52.4828C288.968 52.0801 288.834 51.6775 288.766 51.2748C288.632 50.8721 288.632 50.4023 288.632 49.9997C288.632 49.6641 288.632 49.2614 288.699 48.9259C288.766 48.5232 288.834 48.1876 288.968 47.8521C289.572 45.7716 290.847 43.8925 292.727 42.0133C294.607 40.2013 296.688 38.8591 298.836 37.9866C299.574 37.7182 300.246 37.5168 300.917 37.3826C301.588 37.2484 302.259 37.1142 302.931 37.1142C303.199 37.1142 303.468 37.1142 303.736 37.1142C304.005 37.1142 304.206 37.1813 304.475 37.2484C304.743 37.3155 305.079 37.4497 305.347 37.5168C305.683 37.6511 305.951 37.7853 306.287 37.9866C306.891 38.3222 307.495 38.7249 308.032 39.1275C308.637 39.4631 309.107 39.9329 309.576 40.4027Z" fill="#263593" data-darkreader-inline-fill="" style="--darkreader-inline-fill: var(--darkreader-background-ffffff, #181a1b);"></path><path d="M34.2135 65.8381C32.401 65.3012 32.1996 62.8852 31.9311 61.2745C31.5955 59.6638 31.0584 57.2478 32.8709 56.3082C33.8778 55.8384 34.9519 55.5029 35.8246 54.7646C36.8315 53.9593 37.6371 53.0197 38.5769 52.1473C39.4495 51.3419 40.3893 50.7379 41.1949 49.9326C41.5977 49.5299 41.5305 49.3957 40.9264 49.4628C39.9194 49.597 39.0468 50.2681 38.3083 50.9393C37.2343 51.8788 35.1533 55.0331 33.3408 53.6237C32.401 52.9526 33.2737 50.6708 33.3408 49.7312C33.4751 47.3823 32.2667 45.369 30.9913 43.4898C29.5816 41.4765 28.3733 39.4631 27.5677 37.1142C27.1649 36.0404 26.8964 34.9666 26.7622 33.8257C26.6279 32.9532 26.4937 31.2083 25.7552 30.6043C25.2853 30.2017 24.8154 32.7519 24.7483 33.0875C24.5469 35.3693 26.0238 38.188 27.0978 40.1342C28.239 42.2818 29.6487 44.2281 30.1857 46.6441C30.7228 49.1272 30.4543 51.6775 30.1857 54.1606C29.9172 56.4424 29.5816 58.7914 29.6487 61.0732C29.7158 63.0865 30.1857 65.167 29.6487 67.1804C29.1117 69.3279 27.2992 70.4017 25.4196 71.4084C23.1372 72.6835 20.7206 73.7573 18.1697 74.16C15.4845 74.5627 13.0007 74.0929 10.3156 75.0325C8.23458 75.7036 6.01932 76.7774 4.40823 78.2538C2.39436 79.9987 4.74387 80.3343 6.22071 79.7303C9.37577 78.4552 11.7253 77.2471 15.6859 77.8512C15.6859 77.8512 24.2113 78.7236 27.7691 77.9854C31.3269 77.2472 34.7505 75.5022 37.9056 73.6231C42.2018 71.0728 45.1555 73.3547 49.1832 70.4017C50.6601 69.2608 52.4726 68.0528 54.3522 67.6501C56.0975 67.2475 57.8429 68.0528 59.5882 67.8515C60.7965 67.7173 58.7155 66.3079 58.447 66.1066C57.3058 65.3683 56.0304 65.167 54.6878 65.3012C52.0698 65.5026 49.9217 66.8448 47.4379 67.2475C45.3569 67.583 43.2088 67.2475 41.0606 66.9119C38.7111 66.7106 36.3616 66.5092 34.2135 65.8381Z" fill="#263593" data-darkreader-inline-fill="" style="--darkreader-inline-fill: var(--darkreader-background-ffffff, #181a1b);"></path><path d="M3.06564 44.2281C3.6698 48.9259 3.53554 52.8855 2.79712 52.9526C2.05871 53.0197 0.984642 49.2615 0.380481 44.5636C-0.223679 39.8658 -0.0894216 35.9062 0.648997 35.8391C1.38742 35.7048 2.46148 39.4631 3.06564 44.2281Z" fill="#263593" data-darkreader-inline-fill="" style="--darkreader-inline-fill: var(--darkreader-text-ffffff, #e8e6e3);"></path><path d="M6.42209 33.4231C7.02625 37.4498 6.75773 40.8725 5.88505 41.0067C5.01238 41.1409 3.80406 37.9196 3.26703 33.8928C2.66287 29.799 2.93138 26.4434 3.80406 26.3092C4.60961 26.175 5.81792 29.3292 6.42209 33.4231Z" fill="#263593" data-darkreader-inline-fill="" style="--darkreader-inline-fill: var(--darkreader-text-ffffff, #e8e6e3);"></path><path d="M56.0975 35.0337C56.7017 39.1275 56.5674 42.4831 55.8961 42.5503C55.1577 42.6845 54.1508 39.4631 53.5466 35.3693C52.9424 31.3426 53.0767 27.9198 53.748 27.8527C54.4193 27.7856 55.4933 30.9399 56.0975 35.0337Z" fill="#263593" data-darkreader-inline-fill="" style="--darkreader-inline-fill: var(--darkreader-text-ffffff, #e8e6e3);"></path><path d="M54.1508 46.2414C54.7549 50.2682 54.6878 53.6909 54.0836 53.758C53.4795 53.8251 52.4725 50.6037 51.9355 46.577C51.3313 42.4832 51.3985 39.1276 52.0026 39.0604C52.6068 38.9933 53.5466 42.2147 54.1508 46.2414Z" fill="#263593" data-darkreader-inline-fill="" style="--darkreader-inline-fill: var(--darkreader-text-ffffff, #e8e6e3);"></path><path d="M44.6184 49.8654C45.2226 53.8922 45.1555 57.3149 44.5513 57.382C43.9472 57.4491 42.9402 54.2277 42.4032 50.201C41.799 46.1072 41.8662 42.7516 42.4703 42.6845C43.0745 42.5502 44.0814 45.7716 44.6184 49.8654Z" fill="#263593" data-darkreader-inline-fill="" style="--darkreader-inline-fill: var(--darkreader-text-ffffff, #e8e6e3);"></path><path d="M39.5167 39.396C40.0537 43.2214 40.1208 46.3757 39.5838 46.4428C39.1139 46.5099 38.2412 43.4898 37.7042 39.6645C37.1671 35.8391 37.1 32.6848 37.637 32.6177C38.1069 32.5506 38.9796 35.5706 39.5167 39.396Z" fill="#263593" data-darkreader-inline-fill="" style="--darkreader-inline-fill: var(--darkreader-text-ffffff, #e8e6e3);"></path><path d="M49.2504 25.5038C49.7874 29.3292 49.8545 32.4835 49.3175 32.5506C48.8476 32.6177 47.9749 29.5977 47.4379 25.7723C46.9008 21.9469 46.8337 18.7926 47.3707 18.7255C47.8407 18.6584 48.7133 21.7456 49.2504 25.5038Z" fill="#263593" data-darkreader-inline-fill="" style="--darkreader-inline-fill: var(--darkreader-text-ffffff, #e8e6e3);"></path><path d="M10.4498 23.3562C11.054 27.3829 10.7855 30.8056 9.91279 30.9399C9.04012 31.0741 7.8318 27.8527 7.29477 23.826C6.69061 19.7993 6.95912 16.3766 7.8318 16.2423C8.70447 16.1081 9.84566 19.2624 10.4498 23.3562Z" fill="#263593" data-darkreader-inline-fill="" style="--darkreader-inline-fill: var(--darkreader-text-ffffff, #e8e6e3);"></path><path d="M19.9821 13.625C20.452 16.9806 19.915 19.8664 18.7067 20.0006C17.5655 20.202 16.1558 17.5846 15.6859 14.229C15.216 10.8734 15.753 7.98761 16.8942 7.85338C18.1696 7.65205 19.5122 10.2694 19.9821 13.625Z" fill="#263593" data-darkreader-inline-fill="" style="--darkreader-inline-fill: var(--darkreader-text-ffffff, #e8e6e3);"></path><path d="M33.0723 10.8063C33.5422 14.229 33.1394 17.1819 32.1325 17.3161C31.1927 17.5175 29.9843 14.833 29.4473 11.3432C28.9774 7.92046 29.3802 4.96754 30.3871 4.83331C31.394 4.69909 32.6024 7.38357 33.0723 10.8063Z" fill="#263593" data-darkreader-inline-fill="" style="--darkreader-inline-fill: var(--darkreader-text-ffffff, #e8e6e3);"></path><path d="M24.8154 44.0938C25.5538 48.993 25.2853 53.0868 24.3455 53.221C23.3386 53.3553 21.996 49.5299 21.3247 44.6307C20.5863 39.7315 20.7877 35.6377 21.7946 35.5035C22.7344 35.3693 24.1441 39.1946 24.8154 44.0938Z" fill="#263593" data-darkreader-inline-fill="" style="--darkreader-inline-fill: var(--darkreader-text-ffffff, #e8e6e3);"></path><path d="M15.4174 57.5833C16.0215 61.6772 15.753 65.0328 14.8803 65.167C14.0077 65.3012 12.7993 62.0798 12.2623 58.0531C11.6581 53.9593 11.9267 50.6037 12.7993 50.4695C13.672 50.3352 14.8132 53.4895 15.4174 57.5833Z" fill="#263593" data-darkreader-inline-fill="" style="--darkreader-inline-fill: var(--darkreader-text-ffffff, #e8e6e3);"></path><path d="M7.49616 52.4828C8.03319 56.3082 8.03319 59.3954 7.49616 59.5296C6.95912 59.5967 6.01932 56.5767 5.48229 52.8184C4.94526 48.993 4.94526 45.9059 5.48229 45.7716C6.08645 45.6374 6.95912 48.6575 7.49616 52.4828Z" fill="#263593" data-darkreader-inline-fill="" style="--darkreader-inline-fill: var(--darkreader-text-ffffff, #e8e6e3);"></path><path d="M44.5513 35.3022C45.0884 39.1276 45.0884 42.2147 44.5513 42.3489C44.0143 42.416 43.0745 39.396 42.5375 35.6377C42.0004 31.8124 42.0004 28.7252 42.5375 28.591C43.0745 28.4568 43.9472 31.4768 44.5513 35.3022Z" fill="#263593" data-darkreader-inline-fill="" style="--darkreader-inline-fill: var(--darkreader-text-ffffff, #e8e6e3);"></path><path d="M17.3641 48.993C17.834 52.2144 17.834 54.8318 17.3641 54.8989C16.8942 54.966 16.1558 52.4157 15.6859 49.1943C15.216 45.973 15.216 43.3556 15.6859 43.2885C16.1558 43.2214 16.8942 45.7716 17.3641 48.993Z" fill="#263593" data-darkreader-inline-fill="" style="--darkreader-inline-fill: var(--darkreader-text-ffffff, #e8e6e3);"></path><path d="M10.8526 44.6307C11.2554 47.6508 11.2554 50.1339 10.7855 50.201C10.3156 50.2681 9.57714 47.9192 9.10724 44.8992C8.70446 41.8791 8.70447 39.396 9.17437 39.3289C9.7114 39.2618 10.4498 41.6107 10.8526 44.6307Z" fill="#263593" data-darkreader-inline-fill="" style="--darkreader-inline-fill: var(--darkreader-text-ffffff, #e8e6e3);"></path><path d="M49.4517 38.3893C49.8545 41.208 49.7874 43.624 49.3175 43.6912C48.8476 43.7583 48.1092 41.4765 47.7064 38.6578C47.3036 35.839 47.3707 33.423 47.8406 33.3559C48.3777 33.2888 49.049 35.5706 49.4517 38.3893Z" fill="#263593" data-darkreader-inline-fill="" style="--darkreader-inline-fill: var(--darkreader-text-ffffff, #e8e6e3);"></path><path d="M13.8734 36.376C14.2762 39.396 14.2762 41.8792 13.8063 41.9463C13.3364 42.0134 12.598 39.6645 12.1281 36.6444C11.7253 33.6244 11.7253 31.1412 12.1952 31.0741C12.7322 30.9399 13.4706 33.3559 13.8734 36.376Z" fill="#263593" data-darkreader-inline-fill="" style="--darkreader-inline-fill: var(--darkreader-text-ffffff, #e8e6e3);"></path><path d="M22.0631 26.5776C22.533 29.6648 22.3316 32.2821 21.5932 32.4163C20.9219 32.5506 19.9821 30.0674 19.5122 26.9803C19.0423 23.8931 19.2437 21.2758 19.9821 21.1415C20.6534 21.0744 21.5932 23.4905 22.0631 26.5776Z" fill="#263593" data-darkreader-inline-fill="" style="--darkreader-inline-fill: var(--darkreader-text-ffffff, #e8e6e3);"></path><path d="M37.9727 11.0076C38.3755 14.0277 38.3755 16.5108 37.9056 16.5779C37.4357 16.645 36.6972 14.2961 36.2273 11.2761C35.8246 8.25603 35.8246 5.77289 36.2945 5.70577C36.7644 5.57155 37.5028 7.98758 37.9727 11.0076Z" fill="#263593" data-darkreader-inline-fill="" style="--darkreader-inline-fill: var(--darkreader-text-ffffff, #e8e6e3);"></path><path d="M43.0074 20.202C43.4101 23.222 43.4101 25.7051 42.9402 25.7723C42.4703 25.8394 41.7319 23.4904 41.262 20.4704C40.8592 17.4504 40.8592 14.9672 41.3291 14.9001C41.799 14.833 42.5375 17.249 43.0074 20.202Z" fill="#263593" data-darkreader-inline-fill="" style="--darkreader-inline-fill: var(--darkreader-text-ffffff, #e8e6e3);"></path><path d="M36.9658 23.6918C37.3685 26.7118 37.3685 29.195 36.8986 29.2621C36.4287 29.3292 35.6903 26.9803 35.2204 23.9602C34.8176 20.9402 34.8176 18.4571 35.2875 18.3899C35.8246 18.3228 36.563 20.7389 36.9658 23.6918Z" fill="#263593" data-darkreader-inline-fill="" style="--darkreader-inline-fill: var(--darkreader-text-ffffff, #e8e6e3);"></path><path d="M35.6232 41.5436C36.0931 44.6307 35.8246 47.2481 35.0861 47.3152C34.3477 47.4494 33.3408 45.0334 32.938 41.8792C32.4681 38.792 32.7366 36.1746 33.475 36.0404C34.2135 36.0404 35.1533 38.4564 35.6232 41.5436Z" fill="#263593" data-darkreader-inline-fill="" style="--darkreader-inline-fill: var(--darkreader-text-ffffff, #e8e6e3);"></path><path d="M18.1696 33.2217C18.6395 36.7115 18.6395 39.5973 18.1025 39.6645C17.5655 39.7316 16.6928 36.98 16.2229 33.4902C15.753 30.0003 15.753 27.1145 16.29 27.0474C16.8271 26.9803 17.6997 29.7319 18.1696 33.2217Z" fill="#263593" data-darkreader-inline-fill="" style="--darkreader-inline-fill: var(--darkreader-text-ffffff, #e8e6e3);"></path><path d="M24.6812 5.90712C25.1511 9.26272 25.0168 12.0143 24.3455 12.1485C23.6742 12.2156 22.7344 9.59828 22.2645 6.24268C21.7946 2.88708 21.9289 0.135486 22.6002 0.00126218C23.2715 -0.0658498 24.2113 2.55152 24.6812 5.90712Z" fill="#263593" data-darkreader-inline-fill="" style="--darkreader-inline-fill: var(--darkreader-text-ffffff, #e8e6e3);"></path><path d="M26.7622 20.4704C27.2321 23.826 27.0978 26.5776 26.4265 26.7118C25.7552 26.7789 24.8154 24.1616 24.3455 20.806C23.8756 17.4504 24.0099 14.6988 24.6812 14.5646C25.3524 14.4974 26.2251 17.1819 26.7622 20.4704Z" fill="#263593" data-darkreader-inline-fill="" style="--darkreader-inline-fill: var(--darkreader-text-ffffff, #e8e6e3);"></path><path d="M32.8038 25.9736C33.2737 29.4634 33.2737 32.3492 32.7366 32.4163C32.1996 32.4835 31.3269 29.7319 30.857 26.242C30.3871 22.7522 30.3871 19.8664 30.9241 19.7993C31.4612 19.7322 32.2667 22.4838 32.8038 25.9736Z" fill="#263593" data-darkreader-inline-fill="" style="--darkreader-inline-fill: var(--darkreader-text-ffffff, #e8e6e3);"></path><path d="M14.8132 20.1349C15.3502 23.6247 15.1488 26.5105 14.4776 26.6447C13.8063 26.7118 12.7993 24.0273 12.3294 20.5375C11.7924 17.0477 11.9938 14.1619 12.6651 14.0277C13.3364 13.9605 14.2762 16.645 14.8132 20.1349Z" fill="#263593" data-darkreader-inline-fill="" style="--darkreader-inline-fill: var(--darkreader-text-ffffff, #e8e6e3);"></path></svg>
